<svg xmlns="http://www.w3.org/2000/svg" xmlns:xlink="http://www.w3.org/1999/xlink" width="600" zoomAndPan="magnify" viewBox="0 0 450 149.999998" height="200" preserveAspectRatio="xMidYMid meet" version="1.0"><defs><g/></defs><g fill="#000000" fill-opacity="1"><g transform="translate(35.18655, 95.249996)"><g><path d="M 1.53125 9.988281 C 1.980469 9.988281 2.339844 9.808594 2.699219 9.449219 C 3.328125 8.730469 3.871094 7.921875 4.320312 7.019531 C 4.949219 5.851562 5.488281 4.769531 6.03125 3.601562 C 6.480469 2.429688 7.019531 1.351562 7.558594 0.179688 C 8.730469 -2.429688 9.988281 -4.949219 11.160156 -7.558594 C 12.328125 -10.078125 13.5 -12.601562 14.671875 -15.121094 C 18.808594 -23.671875 25.558594 -34.921875 33.210938 -40.679688 C 33.480469 -40.769531 33.660156 -40.949219 33.929688 -41.128906 C 34.199219 -41.21875 34.46875 -41.398438 34.738281 -41.488281 L 34.921875 -41.488281 C 35.191406 -41.488281 35.371094 -41.398438 35.371094 -41.128906 C 35.371094 -40.769531 35.371094 -40.410156 35.371094 -40.050781 C 35.371094 -39.691406 35.28125 -39.328125 35.191406 -39.058594 C 34.828125 -36.539062 34.109375 -34.109375 33.390625 -31.679688 C 32.21875 -27.808594 30.960938 -23.941406 29.878906 -20.070312 C 29.160156 -17.28125 28.621094 -14.578125 28.351562 -11.429688 C 28.441406 -11.160156 28.441406 -10.800781 28.441406 -10.441406 C 28.351562 -10.078125 28.441406 -9.71875 28.53125 -9.359375 C 28.800781 -7.828125 29.519531 -7.109375 30.601562 -7.109375 C 31.140625 -7.109375 31.679688 -7.289062 32.21875 -7.648438 C 33.03125 -8.101562 33.839844 -8.820312 34.648438 -9.808594 C 35.640625 -11.070312 36.628906 -12.328125 37.53125 -13.5 C 39.78125 -16.648438 42.03125 -19.441406 44.550781 -22.230469 C 45 -22.589844 45.359375 -22.949219 45.71875 -23.398438 C 46.078125 -23.761719 46.53125 -24.121094 46.980469 -24.390625 C 47.429688 -24.660156 47.789062 -24.839844 48.058594 -24.839844 C 49.140625 -24.839844 49.320312 -23.128906 49.589844 -22.320312 C 49.679688 -21.511719 49.859375 -20.789062 49.949219 -20.070312 C 50.039062 -19.261719 50.21875 -18.449219 50.308594 -17.640625 C 50.488281 -16.558594 50.671875 -15.480469 50.851562 -14.398438 C 51.03125 -13.230469 51.210938 -12.148438 51.480469 -10.980469 C 52.019531 -8.460938 54.359375 -5.039062 56.96875 -5.039062 C 57.691406 -5.039062 58.589844 -5.308594 59.671875 -5.761719 C 61.648438 -6.839844 69.570312 -16.648438 70.289062 -18.898438 C 70.378906 -19.351562 70.289062 -19.621094 69.839844 -19.800781 C 69.75 -19.890625 69.480469 -19.980469 69.210938 -19.980469 C 68.941406 -19.980469 68.851562 -19.980469 68.761719 -19.890625 C 68.488281 -19.800781 68.308594 -19.621094 68.039062 -19.351562 C 65.789062 -16.289062 63.988281 -13.859375 62.640625 -11.96875 C 61.289062 -10.078125 60.300781 -9 59.851562 -8.640625 C 58.859375 -7.828125 57.960938 -7.46875 57.148438 -7.46875 C 54.269531 -7.46875 53.550781 -12.238281 53.011719 -14.851562 L 51.929688 -22.769531 C 51.480469 -25.199219 50.761719 -27.269531 47.878906 -27.269531 C 46.890625 -27.179688 46.078125 -26.820312 45.269531 -26.101562 C 43.921875 -24.929688 42.839844 -23.851562 41.761719 -22.5 C 39.238281 -19.710938 37.171875 -16.921875 34.921875 -13.949219 C 34.109375 -12.78125 33.121094 -11.699219 32.128906 -10.621094 C 31.949219 -10.351562 31.679688 -10.171875 31.410156 -10.171875 C 31.230469 -10.171875 31.140625 -10.171875 31.050781 -10.261719 C 30.78125 -10.441406 30.691406 -10.800781 30.691406 -11.25 C 30.691406 -13.320312 31.140625 -15.210938 31.589844 -17.101562 C 32.578125 -21.148438 33.660156 -25.019531 35.011719 -28.980469 C 36 -32.128906 36.898438 -35.191406 37.53125 -38.339844 C 37.800781 -39.691406 37.890625 -41.128906 37.621094 -42.480469 C 37.261719 -43.921875 36.359375 -44.28125 35.011719 -44.28125 C 34.738281 -44.191406 34.46875 -44.101562 34.199219 -44.011719 C 33.929688 -43.921875 33.660156 -43.738281 33.390625 -43.648438 C 23.578125 -37.078125 15.839844 -23.398438 10.890625 -12.78125 C 9.898438 -10.53125 8.820312 -8.371094 7.828125 -6.121094 C 6.839844 -3.871094 5.761719 -1.621094 4.769531 0.628906 C 4.589844 1.078125 4.410156 1.53125 4.230469 1.980469 C 3.960938 2.429688 3.78125 2.878906 3.601562 3.328125 C 3.511719 3.421875 3.421875 3.601562 3.328125 3.78125 C 3.238281 3.960938 3.058594 4.050781 2.789062 4.050781 C 2.519531 4.050781 2.339844 3.960938 2.429688 3.78125 C 2.429688 3.511719 2.429688 3.328125 2.429688 3.148438 C 2.429688 2.789062 2.519531 2.339844 2.609375 1.710938 C 3.328125 -4.050781 4.5 -9.539062 6.210938 -14.941406 C 7.378906 -18.898438 8.640625 -22.859375 9.988281 -26.730469 C 11.25 -30.601562 12.511719 -34.558594 13.769531 -38.519531 C 14.398438 -40.410156 14.941406 -42.210938 15.480469 -44.101562 C 15.929688 -45.898438 16.558594 -47.699219 17.28125 -49.5 C 17.550781 -50.128906 17.460938 -50.671875 16.828125 -51.03125 C 16.738281 -51.121094 16.648438 -51.121094 16.378906 -51.121094 C 16.019531 -51.121094 15.660156 -50.941406 15.300781 -50.488281 C 15.03125 -50.039062 14.761719 -49.5 14.578125 -49.050781 C 14.398438 -48.511719 14.21875 -47.96875 14.039062 -47.519531 L 8.371094 -29.519531 C 5.851562 -21.601562 3.238281 -13.949219 1.53125 -5.761719 C 0.71875 -1.800781 -0.0898438 1.980469 0 6.210938 C 0 6.660156 0 7.019531 0 7.46875 C 0 7.921875 0.0898438 8.371094 0.179688 8.820312 C 0.359375 9.628906 0.808594 9.988281 1.53125 9.988281 Z M 1.53125 9.988281 "/></g></g></g><g fill="#000000" fill-opacity="1"><g transform="translate(100.976479, 95.249996)"><g><path d="M 4.230469 -3.78125 C 10.441406 -3.78125 19.890625 -12.960938 24.210938 -17.550781 C 24.570312 -17.910156 24.839844 -18.179688 24.929688 -18.449219 C 25.199219 -18.898438 25.109375 -19.351562 24.660156 -19.800781 C 24.480469 -19.980469 24.300781 -20.070312 24.03125 -20.070312 C 23.851562 -20.070312 23.578125 -19.980469 23.308594 -19.800781 C 23.039062 -19.53125 22.769531 -19.261719 22.5 -18.988281 C 22.230469 -18.71875 21.871094 -18.449219 21.601562 -18.179688 C 20.519531 -17.191406 19.441406 -16.199219 18.449219 -15.210938 C 17.371094 -14.21875 16.289062 -13.140625 15.210938 -12.148438 C 12.601562 -9.71875 8.460938 -6.839844 4.859375 -6.121094 C 3.148438 -6.121094 2.160156 -6.121094 1.800781 -8.191406 C 1.351562 -9.359375 1.261719 -10.351562 1.53125 -11.339844 C 1.621094 -11.789062 1.890625 -12.058594 2.25 -12.148438 C 6.570312 -12.601562 12.238281 -17.910156 12.960938 -22.320312 C 13.230469 -24.390625 12.058594 -25.648438 10.261719 -25.648438 C 10.171875 -25.648438 9.988281 -25.648438 9.898438 -25.648438 C 9.808594 -25.558594 9.628906 -25.558594 9.539062 -25.558594 C 4.769531 -24.839844 1.261719 -18.539062 -0.269531 -14.308594 C -0.628906 -12.960938 -0.988281 -11.699219 -0.898438 -10.171875 C -0.988281 -9.179688 -0.71875 -8.101562 -0.359375 -7.109375 C 0.269531 -4.859375 1.800781 -3.78125 4.230469 -3.78125 Z M 3.421875 -14.851562 C 3.328125 -14.761719 3.148438 -14.851562 2.878906 -14.941406 C 2.789062 -14.941406 2.699219 -15.121094 2.699219 -15.390625 C 3.691406 -18.179688 6.75 -22.679688 9.71875 -23.128906 C 10.171875 -23.21875 10.441406 -23.039062 10.53125 -22.410156 C 10.53125 -19.53125 5.761719 -16.109375 3.421875 -14.851562 Z M 3.421875 -14.851562 "/></g></g></g><g fill="#000000" fill-opacity="1"><g transform="translate(121.496455, 95.249996)"><g><path d="M 1.710938 2.878906 C 1.980469 2.878906 2.339844 2.699219 2.789062 2.429688 C 3.421875 1.980469 3.871094 1.351562 4.230469 0.539062 C 4.949219 -0.71875 5.671875 -1.980469 6.300781 -3.328125 C 8.820312 -8.550781 12.238281 -15.660156 16.199219 -20.070312 C 16.46875 -20.339844 16.828125 -20.699219 17.28125 -20.96875 C 17.371094 -21.058594 17.460938 -21.058594 17.550781 -21.058594 C 17.820312 -21.058594 17.910156 -20.96875 17.910156 -20.699219 C 18 -20.25 18 -19.890625 18 -19.53125 C 18 -19.171875 18 -18.808594 18 -18.359375 C 17.910156 -16.46875 17.910156 -14.578125 18.269531 -12.78125 C 18.71875 -10.621094 19.890625 -9.539062 21.691406 -9.539062 C 24.03125 -9.539062 33.75 -16.109375 34.46875 -18.71875 C 34.558594 -19.171875 34.378906 -19.53125 34.019531 -19.800781 C 33.929688 -19.890625 33.839844 -19.890625 33.75 -19.980469 C 33.660156 -20.070312 33.480469 -20.070312 33.390625 -20.070312 C 33.210938 -20.070312 33.03125 -19.980469 32.941406 -19.890625 C 32.578125 -19.621094 32.21875 -19.261719 31.949219 -18.898438 C 30.238281 -17.191406 25.019531 -13.230469 22.859375 -12.238281 C 22.5 -12.058594 22.140625 -11.96875 21.78125 -11.96875 C 21.148438 -11.96875 20.699219 -12.511719 20.519531 -13.5 C 20.429688 -13.859375 20.339844 -14.21875 20.339844 -14.671875 C 20.339844 -15.03125 20.339844 -15.390625 20.339844 -15.839844 C 20.25 -16.558594 20.25 -17.28125 20.339844 -18 C 20.339844 -18.71875 20.339844 -19.441406 20.339844 -20.25 C 20.339844 -20.609375 20.339844 -20.96875 20.429688 -21.421875 C 20.429688 -21.78125 20.339844 -22.140625 20.25 -22.589844 C 20.070312 -23.761719 19.441406 -24.390625 18.359375 -24.390625 C 17.820312 -24.390625 17.371094 -24.210938 17.011719 -23.941406 C 12.328125 -20.699219 6.75 -9.808594 4.320312 -4.679688 C 4.050781 -4.230469 3.871094 -3.78125 3.691406 -3.328125 C 3.511719 -2.878906 3.148438 -2.429688 2.519531 -1.980469 C 2.429688 -2.609375 2.339844 -2.789062 2.339844 -3.148438 C 2.339844 -9.449219 5.128906 -23.941406 8.640625 -29.519531 C 13.320312 -36.71875 16.921875 -44.101562 20.429688 -51.929688 C 20.609375 -52.378906 20.789062 -52.828125 20.96875 -53.28125 C 21.148438 -53.730469 21.328125 -54.179688 21.421875 -54.628906 C 21.511719 -54.898438 21.601562 -55.078125 21.601562 -55.351562 C 21.601562 -55.621094 21.601562 -55.800781 21.601562 -56.070312 C 21.601562 -56.519531 21.328125 -56.789062 20.699219 -56.789062 C 20.609375 -56.789062 20.519531 -56.789062 20.429688 -56.699219 C 19.980469 -56.429688 19.53125 -56.160156 19.261719 -55.890625 C 13.140625 -47.878906 8.371094 -37.710938 5.21875 -28.261719 C 4.859375 -27.269531 4.5 -26.371094 4.230469 -25.46875 C 3.871094 -24.570312 3.421875 -23.671875 2.789062 -22.859375 C 2.699219 -22.589844 2.519531 -22.410156 2.429688 -22.140625 C 2.25 -21.871094 2.25 -21.511719 2.339844 -21.238281 C 2.609375 -20.609375 2.699219 -19.980469 2.609375 -19.441406 C 2.429688 -18.898438 2.25 -18.359375 2.160156 -17.820312 C 1.980469 -16.648438 1.800781 -15.480469 1.53125 -14.398438 C 1.261719 -13.230469 0.988281 -12.058594 0.808594 -10.890625 C 0.179688 -7.378906 -0.269531 -4.140625 0 -0.628906 C 0 0.179688 0.0898438 0.988281 0.269531 1.710938 C 0.539062 2.519531 1.078125 2.878906 1.710938 2.878906 Z M 12.601562 -40.320312 C 13.050781 -40.769531 13.140625 -41.21875 13.230469 -41.851562 C 13.320312 -41.398438 13.140625 -40.949219 12.691406 -40.410156 L 12.691406 -40.320312 Z M 13.410156 -42.03125 C 13.679688 -42.300781 13.859375 -42.390625 13.949219 -42.480469 Z M 14.21875 -42.929688 L 14.488281 -43.648438 C 14.398438 -43.558594 14.398438 -43.378906 14.398438 -43.289062 C 14.398438 -43.199219 14.308594 -43.019531 14.21875 -42.929688 Z M 14.21875 -42.929688 "/></g></g></g><g fill="#000000" fill-opacity="1"><g transform="translate(151.466424, 95.249996)"><g><path d="M 0.539062 -0.898438 C 0.988281 -0.898438 1.351562 -1.078125 1.710938 -1.441406 C 2.699219 -2.25 3.058594 -3.238281 3.691406 -4.320312 C 5.128906 -6.839844 6.570312 -9.449219 8.011719 -12.058594 C 9.179688 -14.128906 10.441406 -16.109375 11.96875 -17.910156 C 12.238281 -18.179688 12.421875 -18.539062 12.691406 -18.988281 C 12.960938 -19.351562 13.230469 -19.441406 13.589844 -19.351562 C 14.039062 -19.261719 14.308594 -18.898438 14.21875 -18.449219 C 14.128906 -18 14.039062 -17.550781 14.039062 -17.191406 C 14.039062 -15.839844 13.949219 -14.488281 13.859375 -13.140625 C 13.859375 -11.699219 13.859375 -10.441406 14.488281 -9.089844 C 14.941406 -8.460938 15.390625 -8.191406 16.019531 -8.191406 C 16.109375 -8.191406 16.378906 -8.28125 16.738281 -8.371094 C 17.371094 -8.640625 18 -9.089844 18.449219 -9.539062 C 18.898438 -9.988281 19.441406 -10.53125 19.890625 -10.980469 C 20.519531 -11.609375 21.238281 -12.328125 21.871094 -12.960938 C 22.5 -13.589844 23.21875 -14.21875 24.03125 -14.671875 C 24.480469 -14.398438 24.839844 -13.949219 25.019531 -13.5 C 25.109375 -13.050781 25.378906 -12.601562 25.648438 -12.148438 C 26.640625 -10.621094 27.898438 -9.898438 29.429688 -9.898438 C 30.148438 -9.898438 30.871094 -9.988281 31.5 -10.261719 C 32.761719 -10.890625 33.839844 -11.519531 34.738281 -12.238281 L 40.140625 -16.828125 C 40.589844 -17.191406 41.039062 -17.640625 41.398438 -18.089844 C 42.03125 -18.71875 42.03125 -19.261719 41.488281 -19.800781 C 41.308594 -20.070312 41.039062 -20.25 40.679688 -20.25 C 40.410156 -20.25 40.140625 -20.070312 39.691406 -19.800781 C 39.601562 -19.53125 39.421875 -19.441406 39.328125 -19.351562 C 37.441406 -17.640625 35.371094 -15.839844 33.300781 -14.128906 C 32.488281 -13.5 30.601562 -12.238281 29.429688 -12.238281 C 28.890625 -12.238281 28.351562 -12.511719 27.898438 -13.050781 C 27.539062 -13.5 27.269531 -13.949219 27 -14.578125 C 26.910156 -14.851562 26.820312 -15.121094 26.730469 -15.390625 C 26.640625 -15.660156 26.460938 -15.929688 26.28125 -16.199219 C 25.921875 -17.011719 25.289062 -17.371094 24.480469 -17.371094 C 24.390625 -17.371094 24.03125 -17.28125 23.578125 -17.191406 C 23.039062 -16.921875 22.5 -16.558594 21.871094 -16.109375 C 21.421875 -15.660156 20.878906 -15.121094 20.429688 -14.671875 C 19.890625 -14.21875 19.351562 -13.679688 18.898438 -13.230469 L 17.191406 -11.609375 C 17.101562 -11.609375 17.101562 -11.609375 17.011719 -11.519531 C 16.558594 -11.519531 16.289062 -11.699219 16.289062 -12.058594 C 16.289062 -12.328125 16.289062 -12.691406 16.289062 -13.050781 C 16.199219 -13.410156 16.199219 -13.769531 16.199219 -14.128906 C 16.289062 -14.851562 16.289062 -15.570312 16.378906 -16.289062 C 16.46875 -17.011719 16.46875 -17.730469 16.46875 -18.539062 C 16.558594 -19.621094 16.558594 -20.699219 16.109375 -21.691406 C 15.839844 -22.5 15.300781 -22.949219 14.488281 -22.949219 C 14.21875 -22.949219 13.859375 -22.859375 13.5 -22.679688 C 11.070312 -20.96875 9.089844 -18.269531 7.558594 -15.839844 C 6.75 -14.578125 6.03125 -13.320312 5.308594 -12.058594 C 4.589844 -10.710938 3.871094 -9.449219 3.148438 -8.191406 C 3.058594 -8.101562 2.96875 -7.921875 2.878906 -7.738281 C 2.789062 -7.558594 2.699219 -7.46875 2.429688 -7.46875 C 2.25 -7.46875 2.070312 -7.46875 1.980469 -7.558594 C 2.070312 -7.738281 2.070312 -7.921875 2.070312 -8.101562 C 1.980469 -8.28125 1.980469 -8.460938 2.070312 -8.730469 C 3.601562 -15.929688 5.671875 -23.128906 8.820312 -29.699219 C 9 -30.148438 9.179688 -30.511719 9.449219 -30.960938 C 9.628906 -31.320312 9.628906 -31.769531 9.539062 -32.21875 C 9.449219 -32.488281 9 -32.941406 8.730469 -32.941406 C 8.640625 -32.941406 8.460938 -32.851562 8.191406 -32.761719 C 6.210938 -31.769531 2.25 -18.808594 1.53125 -16.46875 C 0.179688 -11.878906 -0.898438 -7.109375 -0.898438 -2.339844 C -0.898438 -1.621094 -0.539062 -1.171875 0.0898438 -0.988281 C 0.179688 -0.898438 0.359375 -0.898438 0.539062 -0.898438 Z M 0.539062 -0.898438 "/></g></g></g><g fill="#000000" fill-opacity="1"><g transform="translate(188.81639, 95.249996)"><g><path d="M 4.230469 -3.78125 C 10.441406 -3.78125 19.890625 -12.960938 24.210938 -17.550781 C 24.570312 -17.910156 24.839844 -18.179688 24.929688 -18.449219 C 25.199219 -18.898438 25.109375 -19.351562 24.660156 -19.800781 C 24.480469 -19.980469 24.300781 -20.070312 24.03125 -20.070312 C 23.851562 -20.070312 23.578125 -19.980469 23.308594 -19.800781 C 23.039062 -19.53125 22.769531 -19.261719 22.5 -18.988281 C 22.230469 -18.71875 21.871094 -18.449219 21.601562 -18.179688 C 20.519531 -17.191406 19.441406 -16.199219 18.449219 -15.210938 C 17.371094 -14.21875 16.289062 -13.140625 15.210938 -12.148438 C 12.601562 -9.71875 8.460938 -6.839844 4.859375 -6.121094 C 3.148438 -6.121094 2.160156 -6.121094 1.800781 -8.191406 C 1.351562 -9.359375 1.261719 -10.351562 1.53125 -11.339844 C 1.621094 -11.789062 1.890625 -12.058594 2.25 -12.148438 C 6.570312 -12.601562 12.238281 -17.910156 12.960938 -22.320312 C 13.230469 -24.390625 12.058594 -25.648438 10.261719 -25.648438 C 10.171875 -25.648438 9.988281 -25.648438 9.898438 -25.648438 C 9.808594 -25.558594 9.628906 -25.558594 9.539062 -25.558594 C 4.769531 -24.839844 1.261719 -18.539062 -0.269531 -14.308594 C -0.628906 -12.960938 -0.988281 -11.699219 -0.898438 -10.171875 C -0.988281 -9.179688 -0.71875 -8.101562 -0.359375 -7.109375 C 0.269531 -4.859375 1.800781 -3.78125 4.230469 -3.78125 Z M 3.421875 -14.851562 C 3.328125 -14.761719 3.148438 -14.851562 2.878906 -14.941406 C 2.789062 -14.941406 2.699219 -15.121094 2.699219 -15.390625 C 3.691406 -18.179688 6.75 -22.679688 9.71875 -23.128906 C 10.171875 -23.21875 10.441406 -23.039062 10.53125 -22.410156 C 10.53125 -19.53125 5.761719 -16.109375 3.421875 -14.851562 Z M 3.421875 -14.851562 "/></g></g></g><g fill="#000000" fill-opacity="1"><g transform="translate(209.336366, 95.249996)"><g><path d="M 14.761719 13.230469 C 14.941406 13.230469 15.121094 13.230469 15.210938 13.140625 C 15.839844 12.960938 16.109375 12.421875 15.929688 11.429688 C 15.929688 11.339844 15.839844 11.160156 15.75 10.890625 C 15.121094 8.460938 14.851562 6.210938 14.761719 3.960938 C 14.488281 -0.988281 14.941406 -5.671875 15.660156 -10.441406 C 16.828125 -18.539062 20.789062 -34.46875 25.289062 -41.488281 C 27 -44.101562 28.351562 -46.980469 29.429688 -49.949219 C 29.789062 -50.761719 30.148438 -51.480469 30.148438 -52.46875 C 29.878906 -53.460938 29.789062 -53.910156 28.800781 -53.910156 C 28.441406 -53.910156 28.171875 -53.820312 27.898438 -53.550781 C 26.910156 -52.921875 26.460938 -51.929688 26.011719 -50.941406 C 24.300781 -48.148438 22.949219 -45.089844 21.960938 -41.851562 C 20.609375 -37.980469 18.71875 -34.648438 16.558594 -31.410156 L 13.050781 -26.28125 C 12.78125 -25.828125 12.511719 -25.289062 11.878906 -25.019531 C 11.25 -26.371094 10.441406 -27.089844 9.628906 -27.089844 C 8.011719 -27.089844 5.671875 -24.660156 4.679688 -23.398438 C 2.96875 -20.699219 -0.898438 -13.769531 -0.898438 -10.53125 C -0.808594 -9.359375 0.0898438 -9 1.171875 -9 C 1.890625 -9.269531 2.339844 -9.628906 2.96875 -10.078125 C 7.289062 -14.398438 10.980469 -19.171875 14.488281 -24.210938 C 14.761719 -24.660156 15.121094 -25.109375 15.390625 -25.558594 C 15.660156 -26.011719 16.019531 -26.28125 16.558594 -26.550781 L 16.558594 -26.640625 C 16.828125 -25.921875 16.648438 -25.289062 16.378906 -24.660156 C 15.75 -22.230469 15.210938 -19.890625 14.578125 -17.460938 C 13.050781 -10.351562 12.148438 -3.328125 12.421875 3.871094 C 12.421875 5.578125 12.960938 13.230469 14.761719 13.230469 Z M 2.699219 -12.871094 C 2.429688 -13.5 2.339844 -14.039062 2.609375 -14.578125 C 3.601562 -17.101562 4.679688 -19.441406 6.210938 -21.871094 C 6.300781 -22.140625 6.480469 -22.230469 6.570312 -22.320312 C 7.738281 -23.851562 9 -25.019531 10.800781 -25.019531 C 11.25 -25.019531 11.609375 -25.019531 11.878906 -24.929688 C 11.789062 -24.480469 11.609375 -24.03125 11.339844 -23.671875 C 11.070312 -23.308594 10.710938 -22.949219 10.441406 -22.5 C 8.011719 -19.171875 5.488281 -16.109375 2.699219 -12.871094 Z M 2.699219 -12.871094 "/></g></g></g><g fill="#000000" fill-opacity="1"><g transform="translate(234.986328, 95.249996)"><g/></g></g><g fill="#000000" fill-opacity="1"><g transform="translate(269.186308, 95.249996)"><g><path d="M 13.859375 23.398438 C 14.21875 23.398438 14.578125 23.308594 14.941406 23.128906 C 19.800781 21.238281 25.109375 8.820312 26.28125 3.78125 C 26.730469 1.710938 27.808594 -0.0898438 29.429688 -1.800781 L 31.859375 -4.320312 C 36.539062 -9.089844 40.410156 -12.871094 45.449219 -17.28125 C 45.898438 -17.640625 46.351562 -18 46.710938 -18.449219 C 47.070312 -18.898438 47.070312 -19.351562 46.621094 -19.800781 C 46.351562 -20.070312 46.078125 -20.160156 45.808594 -20.160156 C 45.628906 -20.160156 45.449219 -20.160156 45.359375 -20.070312 C 44.550781 -19.441406 43.738281 -18.898438 42.03125 -17.371094 C 36.988281 -12.871094 35.460938 -11.25 30.511719 -6.300781 C 30.421875 -6.210938 30.238281 -6.03125 30.148438 -5.851562 C 30.058594 -5.671875 29.789062 -5.578125 29.519531 -5.578125 C 29.339844 -5.578125 29.160156 -5.578125 29.070312 -5.671875 C 29.070312 -7.46875 31.769531 -17.371094 32.128906 -19.261719 C 34.199219 -30.421875 36.269531 -41.308594 38.429688 -52.558594 C 38.519531 -52.828125 38.519531 -53.191406 38.519531 -53.550781 C 38.519531 -53.910156 38.519531 -54.269531 38.519531 -54.539062 C 38.519531 -55.078125 38.25 -55.441406 37.710938 -55.710938 C 37.621094 -55.800781 37.441406 -55.800781 37.261719 -55.800781 C 36.269531 -55.800781 35.101562 -53.640625 34.738281 -52.828125 C 33.75 -50.941406 32.761719 -49.050781 31.769531 -47.160156 C 30.78125 -45.269531 29.699219 -43.289062 28.710938 -41.398438 C 24.660156 -33.75 19.980469 -26.550781 15.210938 -19.261719 C 12.78125 -15.570312 9.808594 -12.148438 5.851562 -10.078125 C 5.21875 -9.808594 4.769531 -9.628906 4.410156 -9.628906 C 3.601562 -9.628906 3.058594 -10.261719 2.789062 -11.429688 C 2.339844 -13.230469 2.25 -15.210938 2.429688 -17.28125 C 3.421875 -29.96875 10.078125 -46.621094 17.730469 -56.609375 C 18.179688 -57.238281 18.808594 -57.601562 18.179688 -58.410156 C 18.089844 -58.589844 17.910156 -58.679688 17.640625 -58.679688 C 16.109375 -58.679688 12.421875 -53.101562 11.699219 -51.660156 C 5.578125 -41.128906 1.261719 -29.519531 0.0898438 -17.371094 C -0.179688 -14.761719 0 -12.328125 0.808594 -10.078125 C 1.441406 -8.191406 2.609375 -7.199219 4.140625 -7.199219 C 8.910156 -7.199219 15.121094 -14.941406 17.640625 -18.71875 C 23.039062 -27 28.171875 -35.191406 32.761719 -43.921875 C 33.121094 -44.640625 33.480469 -45.359375 33.929688 -45.988281 C 34.019531 -46.171875 34.199219 -46.261719 34.378906 -46.261719 C 34.648438 -46.261719 34.828125 -46.261719 34.921875 -46.171875 C 33.929688 -42.660156 33.480469 -39.328125 32.851562 -35.820312 C 32.21875 -32.761719 31.679688 -29.699219 31.230469 -26.730469 C 30.691406 -23.671875 30.058594 -20.609375 29.339844 -17.640625 C 28.441406 -14.488281 26.101562 -2.429688 24.929688 -0.359375 C 24.480469 0.628906 23.851562 1.621094 23.039062 2.429688 C 22.230469 3.238281 21.511719 4.140625 20.878906 5.039062 C 17.28125 9.71875 13.859375 14.128906 11.96875 19.800781 C 11.878906 20.25 11.789062 20.699219 11.789062 20.96875 C 11.699219 22.410156 12.691406 23.398438 13.859375 23.398438 Z M 14.941406 20.25 C 14.851562 20.25 14.761719 20.160156 14.671875 20.070312 C 14.308594 19.800781 14.578125 19.351562 14.671875 18.988281 C 14.941406 18.539062 15.03125 18.179688 15.121094 17.910156 C 16.46875 15.121094 18.089844 12.601562 19.890625 10.171875 C 20.609375 9.179688 21.148438 8.371094 21.78125 7.378906 C 22.140625 7.738281 22.230469 8.191406 22.050781 8.730469 C 20.609375 12.328125 19.078125 15.929688 16.46875 18.898438 C 16.289062 19.171875 16.019531 19.441406 15.660156 19.800781 C 15.570312 19.890625 15.390625 19.980469 15.300781 20.070312 C 15.210938 20.160156 15.03125 20.25 14.941406 20.25 Z M 14.941406 20.25 "/></g></g></g><g fill="#000000" fill-opacity="1"><g transform="translate(311.666271, 95.249996)"><g><path d="M 3.871094 -3.238281 C 6.300781 -3.238281 8.730469 -5.128906 10.441406 -6.660156 C 14.398438 -9.988281 17.550781 -13.949219 20.699219 -18 C 20.96875 -18.269531 21.148438 -18.539062 21.238281 -18.988281 C 21.328125 -19.441406 21.238281 -19.800781 20.878906 -20.070312 C 20.699219 -20.25 20.519531 -20.339844 20.25 -20.339844 C 20.070312 -20.339844 19.890625 -20.25 19.800781 -20.160156 C 19.351562 -19.800781 18.898438 -19.441406 18.539062 -18.988281 C 17.820312 -18.179688 17.101562 -17.28125 16.46875 -16.46875 C 15.839844 -15.660156 15.121094 -14.761719 14.398438 -13.949219 C 12.328125 -11.519531 10.171875 -9.449219 7.738281 -7.378906 C 6.660156 -6.570312 5.671875 -5.941406 4.320312 -5.671875 C 3.328125 -5.671875 2.789062 -5.761719 2.519531 -6.75 C 2.339844 -7.558594 2.25 -8.371094 2.339844 -9.089844 C 2.878906 -13.320312 4.230469 -17.820312 5.761719 -21.78125 C 5.851562 -22.230469 5.761719 -22.589844 5.308594 -22.769531 C 5.039062 -22.859375 4.859375 -22.949219 4.679688 -22.949219 C 4.5 -22.949219 4.230469 -22.859375 3.960938 -22.679688 C 1.621094 -20.339844 0.628906 -13.050781 0 -9.089844 C 0 -7.738281 0 -6.839844 0.359375 -5.851562 C 0.988281 -4.140625 2.160156 -3.238281 3.871094 -3.238281 Z M 6.210938 -26.191406 C 7.199219 -26.191406 8.101562 -27.089844 8.101562 -28.078125 C 8.011719 -29.070312 7.378906 -29.519531 6.300781 -29.519531 C 5.21875 -29.519531 4.679688 -28.980469 4.679688 -27.898438 C 4.769531 -26.820312 5.398438 -26.101562 6.210938 -26.191406 Z M 6.210938 -26.191406 "/></g></g></g><g fill="#000000" fill-opacity="1"><g transform="translate(328.406252, 95.249996)"><g><path d="M 2.96875 4.769531 C 4.769531 4.769531 7.648438 1.710938 8.640625 0.179688 C 10.53125 -2.339844 12.511719 -4.949219 14.488281 -7.738281 C 16.378906 -10.441406 18.359375 -13.050781 20.25 -15.480469 C 20.699219 -16.199219 21.238281 -17.011719 21.601562 -17.730469 C 21.871094 -18 21.960938 -18.359375 21.960938 -18.808594 C 22.050781 -19.261719 21.960938 -19.621094 21.511719 -19.800781 C 21.238281 -19.890625 21.058594 -19.980469 20.878906 -19.980469 C 20.25 -19.980469 19.441406 -18.539062 19.171875 -18.089844 C 15.210938 -12.601562 10.621094 -6.210938 6.390625 -0.808594 C 5.941406 -0.179688 4.230469 1.980469 3.421875 1.980469 C 2.96875 1.980469 2.699219 1.710938 2.609375 1.261719 C 1.980469 -0.539062 2.160156 -2.429688 2.429688 -4.230469 C 2.878906 -9.808594 4.140625 -19.621094 7.289062 -24.390625 C 11.429688 -30.601562 19.171875 -43.558594 20.789062 -50.761719 C 20.878906 -51.480469 20.789062 -52.199219 19.980469 -52.558594 C 19.621094 -52.648438 19.441406 -52.738281 19.351562 -52.738281 C 18.988281 -52.738281 18.539062 -52.558594 18.089844 -52.199219 C 11.878906 -45.988281 6.839844 -32.398438 4.140625 -24.210938 C 3.511719 -22.140625 2.96875 -20.339844 1.621094 -18.628906 C 1.261719 -18.269531 0.988281 -17.730469 1.351562 -17.28125 C 2.160156 -16.289062 1.800781 -15.210938 1.53125 -14.21875 C 0.71875 -10.351562 0.0898438 -6.570312 0 -1.980469 C 0 -1.710938 0 -1.261719 0 -0.71875 C 0 -0.179688 0 0.359375 0.0898438 0.988281 C 0.359375 2.429688 1.261719 4.769531 2.96875 4.769531 Z M 10.261719 -32.308594 C 9.988281 -32.851562 10.078125 -33.480469 10.351562 -34.199219 C 12.058594 -38.609375 14.128906 -42.75 16.558594 -46.800781 C 16.921875 -47.25 17.191406 -47.519531 17.460938 -47.519531 C 17.550781 -47.519531 17.730469 -47.429688 18 -47.339844 C 17.910156 -47.429688 17.910156 -47.519531 17.910156 -47.609375 C 17.910156 -47.519531 17.910156 -47.519531 18 -47.429688 L 18 -47.339844 L 15.570312 -42.480469 C 13.769531 -39.058594 12.058594 -35.640625 10.351562 -32.308594 C 10.351562 -32.398438 10.351562 -32.398438 10.351562 -32.398438 C 10.261719 -32.398438 10.261719 -32.398438 10.261719 -32.308594 Z M 10.261719 -32.308594 "/></g></g><g transform="translate(345.866252, 95.249996)"><g><path d="M 0.449219 -7.738281 C 1.621094 -7.738281 3.148438 -9 3.960938 -9.71875 C 6.210938 -11.789062 8.191406 -13.949219 10.261719 -16.378906 C 10.53125 -16.648438 10.890625 -17.011719 11.160156 -17.371094 C 11.429688 -17.730469 11.878906 -18 12.511719 -18.269531 C 11.878906 -15.839844 11.339844 -13.5 11.339844 -11.070312 C 11.339844 -9.359375 12.058594 -8.460938 13.589844 -8.460938 C 13.949219 -8.460938 14.21875 -8.460938 14.398438 -8.550781 C 18.179688 -9.179688 24.570312 -15.210938 27.179688 -17.820312 C 27.269531 -17.910156 27.449219 -18.089844 27.539062 -18.179688 C 27.628906 -18.269531 27.628906 -18.359375 27.71875 -18.449219 C 27.898438 -19.078125 27.808594 -19.53125 27.359375 -19.800781 C 27.179688 -19.980469 27 -20.070312 26.730469 -20.070312 C 26.640625 -20.070312 26.550781 -19.980469 26.28125 -19.890625 C 26.011719 -19.710938 25.738281 -19.53125 25.558594 -19.351562 C 25.289062 -19.078125 25.019531 -18.898438 24.75 -18.628906 C 23.941406 -18 23.21875 -17.371094 22.589844 -16.738281 C 21.871094 -16.109375 21.148438 -15.390625 20.339844 -14.761719 C 19.261719 -13.769531 18.089844 -13.050781 17.011719 -12.328125 C 16.199219 -11.878906 15.390625 -11.519531 14.578125 -11.160156 C 14.488281 -11.070312 14.398438 -11.070312 14.21875 -11.070312 C 13.859375 -11.070312 13.679688 -11.339844 13.679688 -11.878906 C 13.679688 -15.75 16.46875 -22.320312 18.179688 -25.738281 C 18.359375 -26.191406 18.539062 -26.550781 18.808594 -27 C 18.988281 -27.359375 19.171875 -27.71875 19.351562 -28.171875 C 19.621094 -28.980469 19.53125 -29.609375 18.898438 -29.96875 C 18.628906 -30.058594 18.449219 -30.148438 18.359375 -30.148438 C 18.089844 -30.148438 17.730469 -29.96875 17.28125 -29.519531 C 17.011719 -29.25 16.828125 -28.890625 16.648438 -28.621094 C 16.378906 -28.261719 16.199219 -27.898438 15.929688 -27.628906 C 15.390625 -26.910156 14.851562 -26.191406 14.398438 -25.46875 C 13.859375 -24.75 13.320312 -24.03125 12.78125 -23.398438 C 12.421875 -22.949219 12.148438 -22.679688 11.96875 -22.679688 C 11.878906 -22.679688 11.609375 -22.859375 11.160156 -23.128906 C 10.261719 -23.851562 9.359375 -24.210938 8.460938 -24.210938 C 7.46875 -24.210938 6.480469 -23.851562 5.488281 -23.039062 C 4.859375 -22.589844 4.410156 -22.230469 4.140625 -21.871094 C 1.441406 -19.171875 -1.53125 -13.859375 -1.53125 -9.898438 C -1.441406 -8.460938 -0.71875 -7.738281 0.449219 -7.738281 Z M 1.261719 -10.980469 C 1.261719 -11.070312 1.261719 -11.070312 1.171875 -11.070312 L 1.078125 -11.160156 C 1.800781 -15.03125 3.601562 -18.269531 6.390625 -20.699219 C 6.839844 -21.148438 7.921875 -21.78125 8.550781 -21.78125 C 9 -21.78125 9.359375 -21.601562 9.808594 -21.328125 C 10.261719 -21.058594 10.351562 -20.609375 10.171875 -20.070312 C 10.078125 -19.800781 9.898438 -19.710938 9.808594 -19.621094 C 7.378906 -16.648438 4.949219 -13.679688 2.070312 -11.25 C 1.890625 -11.070312 1.621094 -10.980469 1.261719 -10.980469 Z M 1.261719 -10.980469 "/></g></g></g><g fill="#000000" fill-opacity="1"><g transform="translate(369.176216, 95.249996)"><g><path d="M 3.871094 -3.238281 C 6.300781 -3.238281 8.730469 -5.128906 10.441406 -6.660156 C 14.398438 -9.988281 17.550781 -13.949219 20.699219 -18 C 20.96875 -18.269531 21.148438 -18.539062 21.238281 -18.988281 C 21.328125 -19.441406 21.238281 -19.800781 20.878906 -20.070312 C 20.699219 -20.25 20.519531 -20.339844 20.25 -20.339844 C 20.070312 -20.339844 19.890625 -20.25 19.800781 -20.160156 C 19.351562 -19.800781 18.898438 -19.441406 18.539062 -18.988281 C 17.820312 -18.179688 17.101562 -17.28125 16.46875 -16.46875 C 15.839844 -15.660156 15.121094 -14.761719 14.398438 -13.949219 C 12.328125 -11.519531 10.171875 -9.449219 7.738281 -7.378906 C 6.660156 -6.570312 5.671875 -5.941406 4.320312 -5.671875 C 3.328125 -5.671875 2.789062 -5.761719 2.519531 -6.75 C 2.339844 -7.558594 2.25 -8.371094 2.339844 -9.089844 C 2.878906 -13.320312 4.230469 -17.820312 5.761719 -21.78125 C 5.851562 -22.230469 5.761719 -22.589844 5.308594 -22.769531 C 5.039062 -22.859375 4.859375 -22.949219 4.679688 -22.949219 C 4.5 -22.949219 4.230469 -22.859375 3.960938 -22.679688 C 1.621094 -20.339844 0.628906 -13.050781 0 -9.089844 C 0 -7.738281 0 -6.839844 0.359375 -5.851562 C 0.988281 -4.140625 2.160156 -3.238281 3.871094 -3.238281 Z M 6.210938 -26.191406 C 7.199219 -26.191406 8.101562 -27.089844 8.101562 -28.078125 C 8.011719 -29.070312 7.378906 -29.519531 6.300781 -29.519531 C 5.21875 -29.519531 4.679688 -28.980469 4.679688 -27.898438 C 4.769531 -26.820312 5.398438 -26.101562 6.210938 -26.191406 Z M 6.210938 -26.191406 "/></g></g></g><g fill="#000000" fill-opacity="1"><g transform="translate(385.916198, 95.249996)"><g><path d="M 3.691406 18.269531 C 3.960938 18.269531 4.230469 18.269531 4.410156 18.179688 C 5.039062 17.910156 5.488281 17.640625 5.851562 17.191406 C 10.621094 12.421875 13.679688 6.390625 15.570312 -0.0898438 C 16.199219 -1.800781 16.828125 -3.328125 18.179688 -4.5 L 24.660156 -10.53125 C 25.828125 -11.699219 27.089844 -12.78125 28.441406 -13.859375 C 29.699219 -14.941406 30.960938 -16.019531 32.128906 -17.191406 C 32.761719 -17.640625 33.300781 -18 33.390625 -18.71875 C 33.480469 -19.171875 33.390625 -19.53125 33.03125 -19.800781 C 32.941406 -19.890625 32.761719 -19.980469 32.488281 -19.980469 L 32.21875 -19.980469 C 31.5 -19.890625 30.960938 -19.441406 30.511719 -18.988281 C 26.28125 -15.300781 22.320312 -11.609375 18.269531 -7.921875 C 18 -7.648438 17.730469 -7.46875 17.550781 -7.199219 C 17.28125 -6.929688 17.011719 -6.75 16.558594 -6.839844 C 16.289062 -7.019531 16.199219 -7.289062 16.199219 -7.558594 C 16.109375 -7.828125 16.019531 -8.101562 15.929688 -8.371094 C 15.210938 -10.078125 14.21875 -11.429688 12.328125 -11.878906 C 11.339844 -12.148438 11.160156 -12.601562 11.789062 -13.320312 C 13.859375 -16.109375 15.75 -18.71875 17.28125 -21.691406 C 17.550781 -22.320312 17.910156 -22.949219 18.179688 -23.578125 C 18.449219 -24.210938 18.71875 -24.839844 18.898438 -25.46875 C 19.710938 -28.078125 18.808594 -29.699219 16.738281 -29.699219 C 13.050781 -29.699219 5.851562 -24.300781 3.148438 -21.78125 C 2.519531 -21.238281 2.429688 -20.609375 2.699219 -19.980469 C 2.878906 -19.710938 3.148438 -19.621094 3.421875 -19.621094 C 3.871094 -19.621094 4.320312 -19.800781 4.769531 -20.160156 C 6.660156 -21.601562 10.980469 -25.289062 13.230469 -26.191406 C 13.679688 -26.460938 14.21875 -26.640625 14.671875 -26.730469 C 15.121094 -26.820312 15.570312 -27 16.019531 -27.179688 C 16.378906 -27.269531 16.828125 -26.820312 16.738281 -26.371094 C 14.671875 -20.96875 11.339844 -16.289062 7.648438 -12.058594 C 7.109375 -11.519531 6.570312 -10.890625 6.121094 -10.261719 C 5.671875 -9.808594 5.671875 -9.359375 6.121094 -8.910156 C 6.390625 -8.640625 6.75 -8.460938 7.019531 -8.460938 C 7.199219 -8.460938 7.378906 -8.460938 7.46875 -8.550781 C 7.921875 -8.820312 8.371094 -9 8.820312 -9.089844 C 9.449219 -9.359375 10.171875 -9.539062 10.800781 -9.628906 C 12.148438 -9.628906 12.78125 -9.359375 13.410156 -8.191406 C 14.488281 -6.121094 14.21875 -3.871094 12.78125 -2.160156 C 12.691406 -2.070312 12.511719 -1.890625 12.421875 -1.710938 C 12.328125 -1.53125 12.148438 -1.351562 12.058594 -1.261719 C 9.449219 1.890625 6.839844 5.039062 4.589844 8.550781 C 3.238281 10.441406 2.25 12.511719 1.890625 14.761719 C 1.800781 15.480469 1.621094 16.109375 1.890625 16.738281 C 2.160156 17.730469 2.789062 18.269531 3.691406 18.269531 Z M 4.859375 14.761719 C 4.769531 14.761719 4.679688 14.671875 4.589844 14.578125 C 4.5 14.488281 4.5 14.308594 4.5 14.039062 C 4.589844 13.589844 4.769531 13.230469 4.859375 12.871094 C 6.300781 9.539062 8.730469 6.929688 11.160156 4.140625 C 9.898438 8.101562 7.921875 11.519531 5.308594 14.488281 C 5.128906 14.671875 4.949219 14.761719 4.859375 14.761719 Z M 4.859375 14.761719 "/></g></g></g></svg>